<?xml version="1.0" encoding="UTF-8"?>
<svg xmlns="http://www.w3.org/2000/svg" xmlns:xlink="http://www.w3.org/1999/xlink" width="85pt" height="96pt" viewBox="0 0 85 96" version="1.1">
<g id="surface1">
<path style=" stroke:none;fill-rule:nonzero;fill:rgb(0%,0%,0%);fill-opacity:1;" d="M 84.773438 13.699219 L 84.773438 22.257812 C 84.773438 29.804688 65.789062 35.957031 42.386719 35.957031 C 18.984375 35.957031 0 29.804688 0 22.257812 L 0 13.699219 C 0 6.152344 18.984375 0 42.386719 0 C 65.789062 0 84.773438 6.152344 84.773438 13.699219 Z M 84.773438 32.960938 L 84.773438 52.222656 C 84.773438 59.769531 65.789062 65.921875 42.386719 65.921875 C 18.984375 65.921875 0 59.769531 0 52.222656 L 0 32.960938 C 9.105469 39.167969 25.773438 42.058594 42.386719 42.058594 C 59 42.058594 75.667969 39.167969 84.773438 32.960938 Z M 84.773438 62.925781 L 84.773438 82.1875 C 84.773438 89.734375 65.789062 95.886719 42.386719 95.886719 C 18.984375 95.886719 0 89.734375 0 82.1875 L 0 62.925781 C 9.105469 69.132812 25.773438 72.023438 42.386719 72.023438 C 59 72.023438 75.667969 69.132812 84.773438 62.925781 Z M 84.773438 62.925781 "/>
</g>
</svg>
