<?xml version="1.0" encoding="UTF-8"?>
<svg xmlns="http://www.w3.org/2000/svg" xmlns:xlink="http://www.w3.org/1999/xlink" width="85pt" height="96pt" viewBox="0 0 85 96" version="1.1">
<g id="surface1">
<path style=" stroke:none;fill-rule:nonzero;fill:rgb(0%,0%,0%);fill-opacity:1;" d="M 75.691406 5.992188 L 9.082031 5.992188 C 4.070312 5.992188 0 10.019531 0 14.984375 L 0 80.90625 C 0 85.867188 4.070312 89.894531 9.082031 89.894531 L 75.691406 89.894531 C 80.707031 89.894531 84.773438 85.867188 84.773438 80.90625 L 84.773438 14.984375 C 84.773438 10.019531 80.707031 5.992188 75.691406 5.992188 Z M 52.472656 77.851562 C 50.882812 78.132812 50.296875 77.160156 50.296875 76.355469 C 50.296875 75.34375 50.335938 70.175781 50.335938 65.996094 C 50.335938 63.074219 49.351562 61.222656 48.195312 60.246094 C 55.199219 59.480469 62.578125 58.527344 62.578125 46.558594 C 62.578125 43.148438 61.347656 41.445312 59.339844 39.253906 C 59.664062 38.449219 60.742188 35.132812 59.019531 30.824219 C 56.390625 30.023438 50.371094 34.179688 50.371094 34.179688 C 47.875 33.484375 45.167969 33.128906 42.5 33.128906 C 39.832031 33.128906 37.125 33.484375 34.628906 34.179688 C 34.628906 34.179688 28.609375 30.023438 25.980469 30.824219 C 24.261719 35.113281 25.320312 38.429688 25.660156 39.253906 C 23.652344 41.445312 22.707031 43.148438 22.707031 46.558594 C 22.707031 58.46875 29.765625 59.480469 36.765625 60.246094 C 35.859375 61.054688 35.042969 62.441406 34.761719 64.425781 C 32.960938 65.230469 28.367188 66.613281 25.621094 61.824219 C 23.898438 58.863281 20.796875 58.621094 20.796875 58.621094 C 17.730469 58.582031 20.589844 60.53125 20.589844 60.53125 C 22.628906 61.464844 24.070312 65.0625 24.070312 65.0625 C 25.90625 70.625 34.683594 68.75 34.683594 68.75 C 34.683594 71.351562 34.722656 75.585938 34.722656 76.355469 C 34.722656 77.160156 34.15625 78.132812 32.546875 77.851562 C 20.058594 73.714844 11.316406 61.953125 11.316406 48.207031 C 11.316406 31.015625 24.601562 17.960938 41.96875 17.960938 C 59.339844 17.960938 73.421875 31.015625 73.421875 48.207031 C 73.441406 61.953125 64.960938 73.730469 52.472656 77.851562 Z M 33.910156 66.410156 C 33.550781 66.484375 33.210938 66.335938 33.171875 66.089844 C 33.132812 65.8125 33.378906 65.566406 33.738281 65.492188 C 34.097656 65.453125 34.4375 65.605469 34.476562 65.847656 C 34.535156 66.089844 34.285156 66.335938 33.910156 66.410156 Z M 32.113281 66.242188 C 32.113281 66.484375 31.828125 66.691406 31.449219 66.691406 C 31.03125 66.730469 30.75 66.523438 30.75 66.242188 C 30.75 65.996094 31.03125 65.792969 31.414062 65.792969 C 31.769531 65.753906 32.113281 65.960938 32.113281 66.242188 Z M 29.519531 66.035156 C 29.445312 66.277344 29.066406 66.390625 28.742188 66.277344 C 28.382812 66.203125 28.140625 65.921875 28.214844 65.679688 C 28.289062 65.4375 28.667969 65.324219 28.988281 65.398438 C 29.367188 65.511719 29.613281 65.792969 29.519531 66.035156 Z M 27.191406 65.023438 C 27.023438 65.230469 26.660156 65.195312 26.378906 64.910156 C 26.09375 64.667969 26.019531 64.3125 26.207031 64.144531 C 26.378906 63.9375 26.738281 63.976562 27.023438 64.257812 C 27.265625 64.5 27.363281 64.875 27.191406 65.023438 Z M 25.46875 63.320312 C 25.300781 63.433594 24.976562 63.320312 24.769531 63.039062 C 24.5625 62.757812 24.5625 62.441406 24.769531 62.308594 C 24.976562 62.140625 25.300781 62.269531 25.46875 62.550781 C 25.675781 62.832031 25.675781 63.167969 25.46875 63.320312 Z M 24.238281 61.503906 C 24.070312 61.671875 23.785156 61.578125 23.578125 61.390625 C 23.371094 61.148438 23.332031 60.863281 23.503906 60.734375 C 23.671875 60.566406 23.957031 60.660156 24.164062 60.847656 C 24.371094 61.089844 24.410156 61.371094 24.238281 61.503906 Z M 22.972656 60.117188 C 22.894531 60.285156 22.652344 60.324219 22.441406 60.191406 C 22.195312 60.078125 22.082031 59.871094 22.160156 59.703125 C 22.234375 59.59375 22.441406 59.535156 22.6875 59.628906 C 22.933594 59.761719 23.046875 59.96875 22.972656 60.117188 Z M 22.972656 60.117188 "/>
</g>
</svg>
