<?xml version="1.0" encoding="UTF-8"?>
<svg xmlns="http://www.w3.org/2000/svg" xmlns:xlink="http://www.w3.org/1999/xlink" width="85pt" height="97pt" viewBox="0 0 85 97" version="1.1">
<g id="surface1">
<path style=" stroke:none;fill-rule:nonzero;fill:rgb(0%,0%,0%);fill-opacity:1;" d="M 75.894531 6.0625 L 9.105469 6.0625 C 4.078125 6.0625 0 10.136719 0 15.15625 L 0 81.84375 C 0 86.863281 4.078125 90.9375 9.105469 90.9375 L 75.894531 90.9375 C 80.921875 90.9375 85 86.863281 85 81.84375 L 85 15.15625 C 85 10.136719 80.921875 6.0625 75.894531 6.0625 Z M 46.257812 72.257812 C 46.257812 80.515625 41.398438 84.289062 34.324219 84.289062 C 27.929688 84.289062 24.230469 80.992188 22.332031 76.992188 L 28.839844 73.070312 C 30.089844 75.289062 31.230469 77.164062 33.980469 77.164062 C 36.597656 77.164062 38.269531 76.140625 38.269531 72.144531 L 38.269531 45.03125 L 46.257812 45.03125 Z M 65.152344 84.289062 C 57.734375 84.289062 52.933594 80.765625 50.601562 76.140625 L 57.109375 72.390625 C 58.816406 75.175781 61.054688 77.238281 64.984375 77.238281 C 68.285156 77.238281 70.410156 75.59375 70.410156 73.300781 C 70.410156 70.570312 68.246094 69.605469 64.585938 67.996094 L 62.59375 67.140625 C 56.824219 64.699219 53.011719 61.609375 53.011719 55.113281 C 53.011719 49.125 57.582031 44.578125 64.699219 44.578125 C 69.785156 44.578125 73.425781 46.339844 76.042969 50.960938 L 69.820312 54.941406 C 68.457031 52.496094 66.976562 51.53125 64.679688 51.53125 C 62.347656 51.53125 60.867188 53.007812 60.867188 54.941406 C 60.867188 57.328125 62.347656 58.292969 65.78125 59.792969 L 67.773438 60.644531 C 74.566406 63.542969 78.378906 66.515625 78.378906 73.1875 C 78.378906 80.347656 72.722656 84.289062 65.152344 84.289062 Z M 65.152344 84.289062 "/>
</g>
</svg>
