<?xml version="1.0" encoding="UTF-8"?>
<svg xmlns="http://www.w3.org/2000/svg" xmlns:xlink="http://www.w3.org/1999/xlink" width="85pt" height="96pt" viewBox="0 0 85 96" version="1.1">
<g id="surface1">
<path style=" stroke:none;fill-rule:nonzero;fill:rgb(0%,0%,0%);fill-opacity:1;" d="M 78.71875 5.992188 L 6.035156 5.992188 C 2.707031 5.992188 0 8.710938 0 12.042969 L 0 83.84375 C 0 87.179688 2.707031 89.894531 6.035156 89.894531 L 78.71875 89.894531 C 82.050781 89.894531 84.773438 87.179688 84.773438 83.84375 L 84.773438 12.042969 C 84.773438 8.710938 82.050781 5.992188 78.71875 5.992188 Z M 25.621094 77.910156 L 13.054688 77.910156 L 13.054688 37.867188 L 25.640625 37.867188 L 25.640625 77.910156 Z M 19.339844 32.402344 C 15.308594 32.402344 12.054688 29.160156 12.054688 25.191406 C 12.054688 21.21875 15.308594 17.980469 19.339844 17.980469 C 23.351562 17.980469 26.625 21.21875 26.625 25.191406 C 26.625 29.179688 23.371094 32.402344 19.339844 32.402344 Z M 72.71875 77.910156 L 60.15625 77.910156 L 60.15625 58.433594 C 60.15625 53.789062 60.0625 47.8125 53.625 47.8125 C 47.082031 47.8125 46.074219 52.871094 46.074219 58.09375 L 46.074219 77.910156 L 33.511719 77.910156 L 33.511719 37.867188 L 45.566406 37.867188 L 45.566406 43.335938 L 45.734375 43.335938 C 47.421875 40.191406 51.527344 36.875 57.640625 36.875 C 70.355469 36.875 72.71875 45.171875 72.71875 55.957031 Z M 72.71875 77.910156 "/>
</g>
</svg>
