<?xml version="1.0" encoding="UTF-8"?>
<svg xmlns="http://www.w3.org/2000/svg" xmlns:xlink="http://www.w3.org/1999/xlink" width="85pt" height="68pt" viewBox="0 0 85 68" version="1.1">
<g id="surface1">
<path style=" stroke:none;fill-rule:nonzero;fill:rgb(0%,0%,0%);fill-opacity:1;" d="M 42.5 13.878906 C 65.265625 13.878906 82.769531 23.46875 82.769531 34 C 82.769531 44.53125 65.25 54.121094 42.5 54.121094 C 19.734375 54.121094 2.230469 44.53125 2.230469 34 C 2.230469 23.46875 19.75 13.878906 42.5 13.878906 M 42.5 11.648438 C 19.03125 11.648438 0 21.648438 0 34 C 0 46.351562 19.03125 56.351562 42.5 56.351562 C 65.96875 56.351562 85 46.351562 85 34 C 85 21.648438 65.96875 11.648438 42.5 11.648438 Z M 28.980469 32.207031 C 27.929688 37.585938 24.226562 37.027344 19.667969 37.027344 L 21.488281 27.652344 C 26.535156 27.652344 29.960938 27.105469 28.980469 32.207031 Z M 12.9375 46.523438 L 17.808594 46.523438 L 18.964844 40.574219 C 24.425781 40.574219 27.8125 40.972656 30.945312 38.039062 C 34.410156 34.851562 35.316406 29.179688 32.84375 26.335938 C 31.554688 24.847656 29.484375 24.117188 26.667969 24.117188 L 17.277344 24.117188 Z M 37.597656 18.15625 L 42.445312 18.15625 L 41.292969 24.105469 C 45.476562 24.105469 49.351562 23.800781 51.226562 25.527344 C 53.191406 27.332031 52.25 29.644531 50.125 40.546875 L 45.210938 40.546875 C 47.253906 30.003906 47.640625 29.125 46.894531 28.328125 C 46.179688 27.558594 44.546875 27.71875 40.601562 27.71875 L 38.105469 40.546875 L 33.257812 40.546875 Z M 67.070312 32.207031 C 66.007812 37.664062 62.195312 37.027344 57.761719 37.027344 L 59.578125 27.652344 C 64.652344 27.652344 68.054688 27.105469 67.070312 32.207031 Z M 51.027344 46.523438 L 55.914062 46.523438 L 57.070312 40.574219 C 62.808594 40.574219 65.980469 40.90625 69.050781 38.039062 C 72.515625 34.851562 73.417969 29.179688 70.949219 26.335938 C 69.660156 24.847656 67.589844 24.117188 64.773438 24.117188 L 55.382812 24.117188 Z M 51.027344 46.523438 "/>
</g>
</svg>
